<?xml version="1.0" encoding="UTF-8"?>
<svg width="57px" height="30px" viewBox="0 0 57 30" version="1.1" xmlns="http://www.w3.org/2000/svg" xmlns:xlink="http://www.w3.org/1999/xlink">
    <title>Shape</title>
    <g id="Page-1" stroke="none" stroke-width="1" fill="none" fill-rule="evenodd">
        <g id="LBX-2.0" transform="translate(-936.000000, -78.000000)" fill="#000000" fill-rule="nonzero">
            <g id="Group" transform="translate(936.805841, 59.000000)">
                <path d="M12.5157,23.6122137 L12.8766,22.3540137 L11.8827,22.0689137 L12.9285,20.4578137 L11.2261,19.9695137 L10.1804,21.5806137 L8.7635,21.1741137 L9.8093,19.5630137 L8.1069,19.0747137 L7.0612,20.6858137 L4.9042,20.0671137 L4.5432,21.3254137 L6.3196,21.8349137 L5.5296,23.0731137 L4.155,22.6788137 L3.7941,23.9370137 L4.788,24.2221137 L3.7422,25.8332137 L5.4446,26.3216137 L6.4903,24.7104137 L7.9072,25.1169137 L6.8614,26.7280137 L8.5638,27.2163137 L9.6096,25.6052137 L11.7666,26.2239137 L12.1275,24.9657137 L10.3511,24.4561137 L11.1412,23.2180137 L12.5157,23.6122137 Z M8.6488,23.9678137 L7.2319,23.5614137 L8.0219,22.3232137 L9.4388,22.7296137 L8.6488,23.9678137 Z M16.5819,29.7451137 C19.4368,30.5641137 21.8751,29.5240137 22.5363,27.2190137 C23.1975,24.9140137 21.6812,22.7396137 18.8264,21.9207137 C15.9821,21.1048137 13.5332,22.1418137 12.872,24.4468137 C12.2108,26.7519137 13.7376,28.9293137 16.5819,29.7451137 Z M17.0308,28.1803137 C15.4131,27.7162137 14.5683,26.4325137 14.9656,25.0474137 C15.369,23.6411137 16.7718,22.9792137 18.3896,23.4433137 C20.0074,23.9073137 20.8461,25.2122137 20.4427,26.6185137 C20.0454,28.0036137 18.6486,28.6443137 17.0308,28.1803137 Z M22.3288,31.1647137 L24.3801,31.7531137 L25.0928,29.2684137 L26.7529,29.7445137 C27.6622,30.0054137 28.0756,30.5588137 27.8996,31.2522137 L27.5627,32.6661137 L29.6669,33.2697137 L30.0796,31.5914137 C30.374,30.4056137 29.8551,29.5015137 28.6392,29.1527137 L28.5863,29.1375137 L28.6015,29.0847137 L28.6543,29.0998137 C29.7646,29.4183137 30.6611,28.9659137 30.9522,27.9509137 C31.3313,26.6292137 30.2991,25.4405137 28.2372,24.8490137 L24.4519,23.7632137 L22.3288,31.1647137 Z M25.4932,27.8726137 L26.1028,25.7473137 L27.7523,26.2205137 C28.577,26.4571137 28.998,27.0241137 28.813,27.6691137 C28.6249,28.3247137 27.9674,28.5824137 27.1427,28.3458137 L25.4932,27.8726137 Z M30.5894,33.5343137 L34.2479,34.5837137 C37.1768,35.4238137 39.3943,34.5151137 40.0464,32.2417137 C40.7046,29.9473137 39.2787,28.0163137 36.371,27.1822137 L32.7125,26.1328137 L30.5894,33.5343137 Z M33.0532,32.6847137 L34.3513,28.1592137 L35.8633,28.5929137 C37.5868,29.0873137 38.3819,30.2652137 37.9845,31.6503137 C37.5812,33.0566137 36.2675,33.6067137 34.5652,33.1184137 L33.0532,32.6847137 Z M47.6619,32.0231137 L48.0865,30.5428137 L41.9644,28.7866137 L39.8413,36.1882137 L46.0269,37.9625137 L46.4636,36.4399137 L42.287,35.2418137 L42.7329,33.6875137 L46.3068,34.7127137 L46.692,33.3698137 L43.1181,32.3447137 L43.5488,30.8432137 L47.6619,32.0231137 Z M46.9351,38.2230137 L48.9864,38.8114137 L49.6991,36.3266137 L51.3592,36.8028137 C52.2685,37.0636137 52.6819,37.6171137 52.506,38.3104137 L52.169,39.7243137 L54.2732,40.3279137 L54.6859,38.6497137 C54.9803,37.4639137 54.4615,36.5598137 53.2455,36.2110137 L53.1926,36.1958137 L53.2078,36.1429137 L53.2607,36.1581137 C54.3709,36.4766137 55.2674,36.0242137 55.5585,35.0091137 C55.9377,33.6874137 54.9054,32.4987137 52.8436,31.9073137 L49.0582,30.8215137 L46.9351,38.2230137 Z M50.0995,34.9309137 L50.7091,32.8056137 L52.3586,33.2788137 C53.1834,33.5153137 53.6043,34.0824137 53.4193,34.7274137 C53.2313,35.3829137 52.5737,35.6406137 51.749,35.4040137 L50.0995,34.9309137 Z M-3.55271368e-15,37.2437137 L3.6584,38.2931137 C6.5873,39.1333137 8.8049,38.2245137 9.457,35.9512137 C10.1151,33.6567137 8.6893,31.7257137 5.7815,30.8916137 L2.1231,29.8422137 L-3.55271368e-15,37.2437137 Z M2.4637,36.3941137 L3.7619,31.8686137 L5.2739,32.3023137 C6.9974,32.7967137 7.7924,33.9746137 7.3951,35.3597137 C6.9917,36.7660137 5.6781,37.3161137 3.9758,36.8278137 L2.4637,36.3941137 Z M9.2519,39.8976137 L11.2609,40.4739137 L13.384,33.0724137 L11.375,32.4961137 L9.2519,39.8976137 Z M12.3909,40.7980137 L14.4422,41.3864137 L15.1549,38.9016137 L16.815,39.3778137 C17.7243,39.6386137 18.1377,40.1921137 17.9618,40.8854137 L17.6248,42.2994137 L19.729,42.9029137 L20.1417,41.2247137 C20.4361,40.0389137 19.9173,39.1348137 18.7013,38.7860137 L18.6484,38.7708137 L18.6636,38.7179137 L18.7165,38.7331137 C19.8267,39.0516137 20.7232,38.5992137 21.0143,37.5842137 C21.3935,36.2625137 20.3612,35.0738137 18.2994,34.4823137 L14.514,33.3965137 L12.3909,40.7980137 Z M15.5553,37.5059137 L16.1649,35.3806137 L17.8144,35.8538137 C18.6392,36.0903137 19.0601,36.6574137 18.8751,37.3024137 C18.6871,37.9580137 18.0295,38.2156137 17.2048,37.9791137 L15.5553,37.5059137 Z M28.4721,39.0025137 L28.8967,37.5222137 L22.7746,35.7660137 L20.6515,43.1676137 L26.8371,44.9419137 L27.2738,43.4193137 L23.0973,42.2212137 L23.5431,40.6669137 L27.117,41.6921137 L27.5022,40.3492137 L23.9283,39.3241137 L24.359,37.8226137 L28.4721,39.0025137 Z M31.8463,46.6076137 C34.4262,47.3477137 36.6543,46.5220137 37.3075,44.6037137 L35.2457,44.0123137 C34.8352,45.0046137 33.6274,45.4249137 32.2952,45.0427137 C30.7514,44.5999137 29.9595,43.3314137 30.3568,41.9462137 C30.7602,40.5399137 32.1102,39.8629137 33.654,40.3058137 C35.018,40.6970137 35.8298,41.6966137 35.6066,42.7541137 L37.6836,43.2926137 C38.1525,41.3787137 36.6812,39.5262137 34.0907,38.7832137 C31.3204,37.9885137 28.9244,39.0407137 28.2633,41.3457137 C27.6021,43.6507137 29.076,45.8130137 31.8463,46.6076137 Z M45.4994,42.2846137 L38.6477,40.3192137 L38.211,41.8418137 L40.6006,42.5273137 L38.9143,48.4062137 L40.9761,48.9976137 L42.6625,43.1187137 L45.0627,43.8072137 L45.4994,42.2846137 Z" id="Shape"></path>
            </g>
        </g>
    </g>
</svg>