<svg width="17" height="16" viewBox="0 0 17 16" fill="none" xmlns="http://www.w3.org/2000/svg">
<g clip-path="url(#clip0_3444_15583)">
<path d="M10.9062 8.99994C10 8.99994 9.59375 9.49994 8.125 9.49994C6.625 9.49994 6.21875 8.99994 5.3125 8.99994C3 8.99994 1.125 10.9062 1.125 13.2187V14.4999C1.125 15.3437 1.78125 15.9999 2.625 15.9999H13.625C14.4375 15.9999 15.125 15.3437 15.125 14.4999V13.2187C15.125 10.9062 13.2188 8.99994 10.9062 8.99994ZM14.125 14.4999C14.125 14.7812 13.875 14.9999 13.625 14.9999H2.625C2.34375 14.9999 2.125 14.7812 2.125 14.4999V13.2187C2.125 11.4374 3.53125 9.99994 5.3125 9.99994C5.9375 9.99994 6.53125 10.4999 8.125 10.4999C9.6875 10.4999 10.3125 9.99994 10.9062 9.99994C12.6875 9.99994 14.125 11.4374 14.125 13.2187V14.4999ZM8.125 7.99994C10.3125 7.99994 12.125 6.21869 12.125 3.99994C12.125 1.81244 10.3125 -6.10352e-05 8.125 -6.10352e-05C5.90625 -6.10352e-05 4.125 1.81244 4.125 3.99994C4.125 6.21869 5.90625 7.99994 8.125 7.99994ZM8.125 0.999939C9.75 0.999939 11.125 2.37494 11.125 3.99994C11.125 5.65619 9.75 6.99994 8.125 6.99994C6.46875 6.99994 5.125 5.65619 5.125 3.99994C5.125 2.37494 6.46875 0.999939 8.125 0.999939Z" fill="black"/>
</g>
<defs>
<clipPath id="clip0_3444_15583">
<rect width="16" height="16" fill="white" transform="translate(0.125)"/>
</clipPath>
</defs>
</svg>
