<?xml version="1.0" encoding="UTF-8"?>
<svg width="24px" height="24px" viewBox="0 0 24 24" version="1.1" xmlns="http://www.w3.org/2000/svg" xmlns:xlink="http://www.w3.org/1999/xlink">
    <title>dietary_glutenFree</title>
    <g id="Page-1" stroke="none" stroke-width="1" fill="none" fill-rule="evenodd">
        <g id="LBX-2.0" transform="translate(-298.000000, -457.000000)" fill="#171717" fill-rule="nonzero">
            <g id="dietary_icons" transform="translate(202.000000, 457.000000)">
                <g id="dietary_glutenFree" transform="translate(96.000000, 0.000000)">
                    <path d="M12,0 C18.627417,-1.21743675e-15 24,5.372583 24,12 C24,18.627417 18.627417,24 12,24 C5.372583,24 8.11624501e-16,18.627417 0,12 C-8.11624501e-16,5.372583 5.372583,1.21743675e-15 12,0 Z M8.591,7.15341 C8.02,7.15341 7.492,7.25568 7.006,7.46023 C6.52,7.66193 6.097,7.95739 5.736,8.34659 C5.376,8.73295 5.094,9.20312 4.893,9.7571 C4.694,10.3111 4.594,10.9403 4.594,11.6449 C4.594,12.5653 4.763,13.3608 5.101,14.0312 C5.442,14.6989 5.915,15.2145 6.52,15.5781 C7.128,15.9389 7.834,16.1193 8.638,16.1193 C9.36,16.1193 9.999,15.973 10.556,15.6804 C11.113,15.3849 11.55,14.9645 11.868,14.419 C12.187,13.8736 12.346,13.2273 12.346,12.4801 L12.346,12.4801 L12.346,11.4318 L8.805,11.4318 L8.805,12.6676 L10.813,12.667 L10.8086667,12.8193505 C10.7891111,13.0895523 10.7304444,13.3357616 10.6326667,13.5580079 L10.552,13.7202 C10.376,14.0327 10.124,14.2741 9.797,14.4446 C9.474,14.6151 9.09,14.7003 8.647,14.7003 C8.158,14.7003 7.729,14.5824 7.36,14.3466 C6.991,14.108 6.702,13.7599 6.495,13.3026 C6.287,12.8452 6.184,12.2869 6.184,11.6278 C6.184,10.9744 6.287,10.4205 6.495,9.96591 C6.705,9.50852 6.993,9.16193 7.36,8.92614 C7.726,8.69034 8.144,8.57244 8.613,8.57244 C8.874,8.57244 9.116,8.60653 9.337,8.67472 C9.559,8.74006 9.755,8.83807 9.925,8.96875 C10.099,9.09943 10.246,9.2571 10.368,9.44176 C10.493,9.62358 10.591,9.82955 10.662,10.0597 L10.662,10.0597 L12.273,10.0597 C12.208,9.63068 12.07,9.23864 11.86,8.88352 C11.65,8.52841 11.381,8.22159 11.055,7.96307 C10.731,7.70455 10.36,7.50568 9.942,7.36648 C9.525,7.22443 9.074,7.15341 8.591,7.15341 Z M19.465,7.27273 L13.874,7.27273 L13.874,16 L15.455,16 L15.455,12.2926 L19.082,12.2926 L19.082,10.9673 L15.455,10.9673 L15.455,8.59801 L19.465,8.59801 L19.465,7.27273 Z" id="Combined-Shape"></path>
                </g>
            </g>
        </g>
    </g>
</svg>