<svg width="17" height="16" viewBox="0 0 17 16" fill="none" xmlns="http://www.w3.org/2000/svg">
<g clip-path="url(#clip0_3444_15571)">
<path d="M12.625 3.99994C12.625 1.81244 10.8125 -6.10352e-05 8.625 -6.10352e-05C6.40625 -6.10352e-05 4.625 1.81244 4.625 3.99994H1.625V13.5C1.625 14.9062 2.71875 16 4.125 16H13.125C14.5 16 15.625 14.9062 15.625 13.5V3.99994H12.625ZM8.625 0.999939C10.25 0.999939 11.625 2.37494 11.625 3.99994H5.625C5.625 2.37494 6.96875 0.999939 8.625 0.999939ZM14.625 13.5C14.625 14.3437 13.9375 15 13.125 15H4.125C3.28125 15 2.625 14.3437 2.625 13.5V4.99994H4.625V6.49994C4.625 6.78119 4.84375 6.99994 5.125 6.99994C5.375 6.99994 5.625 6.78119 5.625 6.49994V4.99994H11.625V6.49994C11.625 6.78119 11.8438 6.99994 12.125 6.99994C12.375 6.99994 12.625 6.78119 12.625 6.49994V4.99994H14.625V13.5Z" fill="black"/>
</g>
<defs>
<clipPath id="clip0_3444_15571">
<rect width="16" height="16" fill="white" transform="translate(0.625)"/>
</clipPath>
</defs>
</svg>
