<svg width="17" height="16" viewBox="0 0 17 16" fill="none" xmlns="http://www.w3.org/2000/svg">
<g clip-path="url(#clip0_3444_33983)">
<path d="M16.7814 7.1875L14.8752 5.625V3.1875C14.8752 3.09375 14.7814 3 14.6877 3H14.0627C13.9377 3 13.8752 3.09375 13.8752 3.1875V4.8125L9.50025 1.25C9.31275 1.09375 9.094 1.03125 8.87525 1.03125C8.62525 1.03125 8.4065 1.09375 8.219 1.25L0.968994 7.1875C0.906494 7.21875 0.875244 7.28125 0.875244 7.375C0.875244 7.4375 0.875244 7.5 0.906494 7.53125L1.21899 7.90625C1.28149 7.96875 1.34399 8 1.43774 8C1.50024 8 1.53149 8 1.59399 7.9375L2.87525 6.90625V14.5C2.87525 14.7813 3.094 15 3.37525 15H7.37525C7.62525 15 7.87525 14.7813 7.87525 14.5V10.5H9.87525V14.5C9.87525 14.7813 10.094 15 10.3752 15H14.3752C14.6252 15 14.8752 14.7813 14.8752 14.5V6.90625L16.1252 7.9375C16.1877 8 16.2189 8 16.2814 8C16.3752 8 16.4377 7.96875 16.5002 7.90625L16.8127 7.53125C16.8439 7.5 16.8439 7.4375 16.8439 7.375C16.8439 7.28125 16.8127 7.21875 16.7814 7.1875ZM13.8439 14L10.844 14.0313V10C10.844 9.75 10.6252 9.5 10.3752 9.5H7.37525H7.344C7.094 9.5 6.844 9.71875 6.844 10V14H3.87525V6.09375L8.87525 2L13.8752 6.09375L13.8439 14Z" fill="black"/>
</g>
<defs>
<clipPath id="clip0_3444_33983">
<rect width="16" height="16" fill="white" transform="translate(0.875)"/>
</clipPath>
</defs>
</svg>
