<?xml version="1.0" encoding="UTF-8"?>
<svg width="24px" height="24px" viewBox="0 0 24 24" version="1.1" xmlns="http://www.w3.org/2000/svg" xmlns:xlink="http://www.w3.org/1999/xlink">
    <title>dietary_vegitarian</title>
    <g id="Page-1" stroke="none" stroke-width="1" fill="none" fill-rule="evenodd">
        <g id="LBX-2.0" transform="translate(-234.000000, -457.000000)" fill="#171717" fill-rule="nonzero">
            <g id="dietary_icons" transform="translate(202.000000, 457.000000)">
                <g id="dietary_vegitarian" transform="translate(32.000000, 0.000000)">
                    <path d="M12,0 C18.627417,-1.21743675e-15 24,5.372583 24,12 C24,18.627417 18.627417,24 12,24 C5.372583,24 8.11624501e-16,18.627417 0,12 C-8.11624501e-16,5.372583 5.372583,1.21743675e-15 12,0 Z M16.2145,7.15341 C15.6435,7.15341 15.1151,7.25568 14.6293,7.46023 C14.1435,7.66193 13.7202,7.95739 13.3594,8.34659 C12.9986,8.73295 12.7173,9.20312 12.5156,9.7571 C12.3168,10.3111 12.2173,10.9403 12.2173,11.6449 C12.2173,12.5653 12.3864,13.3608 12.7244,14.0312 C13.0653,14.6989 13.5384,15.2145 14.1435,15.5781 C14.7514,15.9389 15.4574,16.1193 16.2614,16.1193 C16.983,16.1193 17.6222,15.973 18.179,15.6804 C18.7358,15.3849 19.1733,14.9645 19.4915,14.419 C19.8097,13.8736 19.9688,13.2273 19.9688,12.4801 L19.9688,12.4801 L19.9688,11.4318 L16.4276,11.4318 L16.4276,12.6676 L18.436,12.667 L18.4315657,12.8193505 C18.4120065,13.0895523 18.3533213,13.3357616 18.2554509,13.5580079 L18.1747,13.7202 C17.9986,14.0327 17.7472,14.2741 17.4205,14.4446 C17.0966,14.6151 16.7131,14.7003 16.2699,14.7003 C15.7813,14.7003 15.3523,14.5824 14.983,14.3466 C14.6136,14.108 14.3253,13.7599 14.1179,13.3026 C13.9105,12.8452 13.8068,12.2869 13.8068,11.6278 C13.8068,10.9744 13.9105,10.4205 14.1179,9.96591 C14.3281,9.50852 14.6165,9.16193 14.983,8.92614 C15.3494,8.69034 15.767,8.57244 16.2358,8.57244 C16.4972,8.57244 16.7386,8.60653 16.9602,8.67472 C17.1818,8.74006 17.3778,8.83807 17.5483,8.96875 C17.7216,9.09943 17.8693,9.2571 17.9915,9.44176 C18.1165,9.62358 18.2145,9.82955 18.2855,10.0597 L18.2855,10.0597 L19.8963,10.0597 C19.831,9.63068 19.6932,9.23864 19.483,8.88352 C19.2727,8.52841 19.0043,8.22159 18.6776,7.96307 C18.3537,7.70455 17.983,7.50568 17.5653,7.36648 C17.1477,7.22443 16.6974,7.15341 16.2145,7.15341 Z M5.3917,7.27273 L3.6573,7.27273 L6.7298,16 L8.6815,16 L11.7582,7.27273 L10.0195,7.27273 L7.7525,14.142 L7.663,14.142 L5.3917,7.27273 Z" id="Combined-Shape"></path>
                </g>
            </g>
        </g>
    </g>
</svg>