<?xml version="1.0" encoding="UTF-8"?>
<svg width="70px" height="82px" viewBox="0 0 70 82" version="1.1" xmlns="http://www.w3.org/2000/svg" xmlns:xlink="http://www.w3.org/1999/xlink">
    <title>Combined Shape</title>
    <g id="Page-1" stroke="none" stroke-width="1" fill="none" fill-rule="evenodd">
        <path d="M35,0 C54.3298706,0 70,15.8430261 70,35.386533 C70,59.0731867 45.9612198,75.8389167 37.7278376,80.8865646 C36.031005,81.9267007 33.9688356,81.9267007 32.2721624,80.8865646 C24.0387802,75.8389167 0,59.0731867 0,35.386533 C0,15.8430261 15.66997,0 35,0 Z M35,21.3888889 C27.4827909,21.3888889 21.3888889,27.4827909 21.3888889,35 C21.3888889,42.5172091 27.4827909,48.6111111 35,48.6111111 C42.5172091,48.6111111 48.6111111,42.5172091 48.6111111,35 C48.6111111,27.4827909 42.5172091,21.3888889 35,21.3888889 Z" id="Combined-Shape" fill="#000000" fill-rule="nonzero"></path>
    </g>
</svg>