<?xml version="1.0" encoding="UTF-8"?>
<svg width="24px" height="24px" viewBox="0 0 24 24" version="1.1" xmlns="http://www.w3.org/2000/svg" xmlns:xlink="http://www.w3.org/1999/xlink">
    <title>dietary_dairyFree</title>
    <g id="Page-1" stroke="none" stroke-width="1" fill="none" fill-rule="evenodd">
        <g id="LBX-2.0" transform="translate(-266.000000, -457.000000)" fill="#171717" fill-rule="nonzero">
            <g id="dietary_icons" transform="translate(202.000000, 457.000000)">
                <g id="dietary_dairyFree" transform="translate(64.000000, 0.000000)">
                    <path d="M12,0 C18.627417,-1.21743675e-15 24,5.372583 24,12 C24,18.627417 18.627417,24 12,24 C5.372583,24 8.11624501e-16,18.627417 0,12 C-8.11624501e-16,5.372583 5.372583,1.21743675e-15 12,0 Z M8.1621,8.43359 L5.5254,8.43359 L5.5254,17 L7.9043,17 C8.8691,17 9.6934,16.8379 10.377,16.5137 C11.0605,16.1855 11.582,15.6992 11.9414,15.0547 C12.3008,14.4062 12.4805,13.5996 12.4805,12.6348 C12.4805,11.7168 12.3047,10.9473 11.9531,10.3262 C11.6016,9.70117 11.1035,9.23047 10.459,8.91406 C9.8145,8.59375 9.0488,8.43359 8.1621,8.43359 L8.1621,8.43359 Z M19.166,8.43359 L14.3262,8.43359 L14.3262,17 L15.7207,17 L15.7207,13.4668 L18.9434,13.4668 L18.9434,12.2891 L15.7207,12.2891 L15.7207,9.61719 L19.166,9.61719 L19.166,8.43359 Z M8.1328,9.59961 C8.7578,9.59961 9.2832,9.71094 9.709,9.93359 C10.1387,10.1523 10.4629,10.4883 10.6816,10.9414 C10.9043,11.3945 11.0156,11.9727 11.0156,12.6758 C11.0156,13.7188 10.7598,14.5039 10.248,15.0312 C9.7363,15.5586 8.9629,15.8223 7.9277,15.8223 L7.9277,15.8223 L6.9316,15.8223 L6.9316,9.59961 Z" id="Combined-Shape"></path>
                </g>
            </g>
        </g>
    </g>
</svg>