<?xml version="1.0" encoding="UTF-8"?>
<svg width="81px" height="98px" viewBox="0 0 81 98" version="1.1" xmlns="http://www.w3.org/2000/svg" xmlns:xlink="http://www.w3.org/1999/xlink">
    <title>Group</title>
    <g id="Page-1" stroke="none" stroke-width="1" fill="none" fill-rule="evenodd">
        <g id="LBX-2.0" transform="translate(-914.000000, -399.000000)">
            <g id="Group" transform="translate(915.000000, 399.000000)">
                <polygon id="Path" stroke="#000000" points="0.06283 62.7326 0 33.8325 71.54206 34.8003 70.25906 63.1653"></polygon>
                <path d="M32.97016,44.596 L30.87416,52.436 L28.55416,44.596 L25.00216,44.596 L22.73016,52.436 L20.63416,44.596 L17.38616,44.596 L20.66616,55.796 L24.39416,55.796 L26.76216,47.812 L29.14616,55.796 L32.81016,55.796 L36.15416,44.596 L32.97016,44.596 Z M36.83976,55.796 L39.87976,55.796 L39.87976,44.596 L36.83976,44.596 L36.83976,55.796 Z M50.54976,44.596 L50.67776,51.972 L44.74176,44.596 L41.58976,44.596 L41.58976,55.796 L44.62976,55.796 L44.50176,48.34 L50.43776,55.796 L53.60576,55.796 L53.60576,44.596 L50.54976,44.596 Z" id="Shape" fill="#0F843D" fill-rule="nonzero"></path>
                <path d="M32.97016,44.596 L30.87416,52.436 L28.55416,44.596 L25.00216,44.596 L22.73016,52.436 L20.63416,44.596 L17.38616,44.596 L20.66616,55.796 L24.39416,55.796 L26.76216,47.812 L29.14616,55.796 L32.81016,55.796 L36.15416,44.596 L32.97016,44.596 Z M36.83976,55.796 L39.87976,55.796 L39.87976,44.596 L36.83976,44.596 L36.83976,55.796 Z M50.54976,44.596 L50.67776,51.972 L44.74176,44.596 L41.58976,44.596 L41.58976,55.796 L44.62976,55.796 L44.50176,48.34 L50.43776,55.796 L53.60576,55.796 L53.60576,44.596 L50.54976,44.596 Z" id="Shape" fill="#000000" fill-rule="nonzero"></path>
                <path d="M6.49416,67.663 L79.07256,68.6448 L77.74496,97.9945 L6.55916,97.5556 L6.49416,67.663 Z M27.63416,78.9275 L24.38616,78.9275 L27.66616,90.1275 L31.39416,90.1275 L33.76216,82.1435 L36.14616,90.1275 L39.81016,90.1275 L43.15416,78.9275 L39.97016,78.9275 L37.87416,86.7675 L35.55416,78.9275 L32.00216,78.9275 L29.73016,86.7675 L27.63416,78.9275 Z M46.87976,78.9275 L43.83976,78.9275 L43.83976,90.1275 L46.87976,90.1275 L46.87976,78.9275 Z M51.74176,78.9275 L48.58976,78.9275 L48.58976,90.1275 L51.62976,90.1275 L51.50176,82.6715 L57.43776,90.1275 L60.60576,90.1275 L60.60576,78.9275 L57.54976,78.9275 L57.67776,86.3035 L51.74176,78.9275 Z" id="Combined-Shape" fill="#000000" fill-rule="nonzero"></path>
                <path d="M3.82177,0 L79.64866,0.949421 L77.93896,29.3315 L3.56127,28.9071 L3.82177,0 Z M24.63416,10.2645 L21.38616,10.2645 L24.66616,21.4645 L28.39416,21.4645 L30.76216,13.4805 L33.14616,21.4645 L36.81016,21.4645 L40.15416,10.2645 L36.97016,10.2645 L34.87416,18.1045 L32.55416,10.2645 L29.00216,10.2645 L26.73016,18.1045 L24.63416,10.2645 Z M43.87976,10.2645 L40.83976,10.2645 L40.83976,21.4645 L43.87976,21.4645 L43.87976,10.2645 Z M48.74176,10.2645 L45.58976,10.2645 L45.58976,21.4645 L48.62976,21.4645 L48.50176,14.0085 L54.43776,21.4645 L57.60576,21.4645 L57.60576,10.2645 L54.54976,10.2645 L54.67776,17.6405 L48.74176,10.2645 Z" id="Combined-Shape" fill="#000000" fill-rule="nonzero"></path>
            </g>
        </g>
    </g>
</svg>