<svg width="15" height="16" viewBox="0 0 15 16" fill="none" xmlns="http://www.w3.org/2000/svg">
<path d="M7.125 7.99994C9.3125 7.99994 11.125 6.21869 11.125 3.99994C11.125 1.81244 9.3125 -6.10352e-05 7.125 -6.10352e-05C4.90625 -6.10352e-05 3.125 1.81244 3.125 3.99994C3.125 6.21869 4.90625 7.99994 7.125 7.99994ZM9.90625 8.99994H9.375C8.6875 9.34369 7.9375 9.49994 7.125 9.49994C6.3125 9.49994 5.53125 9.34369 4.84375 8.99994H4.3125C2 8.99994 0.125 10.9062 0.125 13.2187V14.4999C0.125 15.3437 0.78125 15.9999 1.625 15.9999H12.625C13.4375 15.9999 14.125 15.3437 14.125 14.4999V13.2187C14.125 10.9062 12.2188 8.99994 9.90625 8.99994Z" fill="#000000"/>
</svg>
