<svg width="17" height="16" viewBox="0 0 17 16" fill="none" xmlns="http://www.w3.org/2000/svg">
<g clip-path="url(#clip0_3444_15564)">
<path d="M16.7814 7.18741L14.8752 5.62491V3.18741C14.8752 3.09366 14.7814 2.99991 14.6877 2.99991H14.0627C13.9377 2.99991 13.8752 3.09366 13.8752 3.18741V4.81241L9.50025 1.24991C9.31275 1.09366 9.094 1.03116 8.87525 1.03116C8.62525 1.03116 8.4065 1.09366 8.219 1.24991L0.968994 7.18741C0.906494 7.21866 0.875244 7.28116 0.875244 7.37491C0.875244 7.43741 0.875244 7.49991 0.906494 7.53116L1.21899 7.90616C1.28149 7.96866 1.34399 7.99991 1.43774 7.99991C1.50024 7.99991 1.53149 7.99991 1.59399 7.93741L2.87525 6.90616V14.4999C2.87525 14.7812 3.094 14.9999 3.37525 14.9999H7.37525C7.62525 14.9999 7.87525 14.7812 7.87525 14.4999V10.4999H9.87525V14.4999C9.87525 14.7812 10.094 14.9999 10.3752 14.9999H14.3752C14.6252 14.9999 14.8752 14.7812 14.8752 14.4999V6.90616L16.1252 7.93741C16.1877 7.99991 16.2189 7.99991 16.2814 7.99991C16.3752 7.99991 16.4377 7.96866 16.5002 7.90616L16.8127 7.53116C16.8439 7.49991 16.8439 7.43741 16.8439 7.37491C16.8439 7.28116 16.8127 7.21866 16.7814 7.18741ZM13.8439 13.9999L10.844 14.0312V9.99991C10.844 9.74991 10.6252 9.49991 10.3752 9.49991H7.37525H7.344C7.094 9.49991 6.844 9.71866 6.844 9.99991V13.9999H3.87525V6.09366L8.87525 1.99991L13.8752 6.09366L13.8439 13.9999Z" fill="#000000"/>
<path d="M3.16064 6.28572V14.2857L7.73207 14.54V9.71429H10.5892V14.2857H14.0178V5.71429L8.87493 1.71429L3.16064 6.28572Z" fill="#000000"/>
</g>
<defs>
<clipPath id="clip0_3444_15564">
<rect width="16" height="16" fill="white" transform="translate(0.875)"/>
</clipPath>
</defs>
</svg>
